<?xml version="1.0" encoding="utf-8" ?>
<svg baseProfile="full" height="200mm" version="1.1" viewBox="0,0,200,200" width="200mm" xmlns="http://www.w3.org/2000/svg" xmlns:ev="http://www.w3.org/2001/xml-events" xmlns:xlink="http://www.w3.org/1999/xlink"><defs /><rect fill="#1a1a1a" height="200" width="200" x="0" y="0" /><text alignment-baseline="middle" fill="#e1ed5e" style="dominant-baseline: central; font-size:9.0px; font-family:Arial;" text-anchor="middle" x="100.0" y="100.0">2023</text><line stroke="#e1ed5e" stroke-width="0.3" x1="100.0" x2="100.0" y1="15.0" y2="10.0" /><path d="M 100.0 14.0 a86.0,86.0 0 0,1 42.46469731375804,11.215312516191453" fill="none" id="id85" stroke="none" /><text fill="#e1ed5e" style="font-size:6.75px; font-family:Arial;" text-anchor="middle"><textPath startOffset="22.20632615414155" xlink:href="#id85">January</textPath></text><path d="M 100.0 79.0 l 0.0 -1.0888810156969697 a22.08888101569697,22.08888101569697 0 0,0 0.3802237760070473,0.0032727060810228393 l -0.018743296734518956 1.0887196862245057" fill="#ff0d01" stroke="none" /><path d="M 105.36241919743992 79.69619591428918 l 3.207551332915317 -12.144797238057182 a33.561229458409244,33.561229458409244 0 0,0 0.55727959773308,0.15232556541921338 l -3.416128819872108 12.087785131811675" fill="#ffa90f" stroke="none" /><path d="M 105.71112130821622 79.79150937346287 l 17.13336392464865 -60.62547187961136 a84.0,84.0 0 0,0 1.3880391291062915,0.40520668432518603 l -18.174393271478365 60.321566866367476" fill="#4dd2ff" stroke="none" /><path d="M 106.0581310904928 79.89281104454417 l 2.4840999762868363 -8.244831097469664 a29.610922860994116,29.610922860994116 0 0,0 0.48676779519760743,0.15124112343211032 l -2.6256531441951623 8.200849839155033" fill="#ff750a" stroke="none" /><path d="M 106.40334571778207 80.00007090966166 l 5.232886745352106 -16.344168885678055 a38.161438175550686,38.161438175550686 0 0,0 0.6238798692190729,0.20568338400009475 l -5.5134494368135964 16.251671777418725" fill="#ffe315" stroke="none" /><line stroke="#e1ed5e" stroke-width="0.3" x1="143.23703022742887" x2="145.7803849466894" y1="26.81831364943548" y2="22.513508569990506" /><path d="M 143.74570117128098 25.957352633546492 a86.0,86.0 0 0,1 28.547481713284135,27.462654790039103" fill="none" id="id86" stroke="none" /><text fill="#e1ed5e" style="font-size:6.75px; font-family:Arial;" text-anchor="middle"><textPath startOffset="19.985693538727396" xlink:href="#id86">February</textPath></text><line stroke="#e1ed5e" stroke-width="0.3" x1="172.23445277983987" x2="176.4835382374775" y1="55.19839476539836" y2="52.563006222186495" /><path d="M 173.08426987136738 54.67131705675599 a86.0,86.0 0 0,1 12.851231095245387,41.99856678651699" fill="none" id="id87" stroke="none" /><text fill="#e1ed5e" style="font-size:6.75px; font-family:Arial;" text-anchor="middle"><textPath startOffset="22.20632615414155" xlink:href="#id87">March</textPath></text><path d="M 118.56541770881063 90.18545643968196 l 49.19509614322694 -26.006816632119115 a76.64631161072592,76.64631161072592 0 0,0 0.6065663796558521,1.171693179294127 l -49.63547195604291 25.156150730564644" fill="#44ffe7" stroke="none" /><path d="M 118.73160827565052 90.50648371742162 l 22.876136563279005 -11.59403782900398 a46.64642932733845,46.64642932733845 0 0,0 0.3568229429958768,0.7193332794485685 l -23.07231951922829 11.198544961056461" fill="#b8ff1f" stroke="none" /><path d="M 119.04729006885535 91.15688171328212 l 0.8183629066306322 -0.37994276133958416 a21.902260687852067,21.902260687852067 0 0,0 0.15581652381094616,0.34332105595450496 l -0.8247817474049253 0.3657996965430165" fill="#ff0a01" stroke="none" /><path d="M 119.196687751892 91.48605970444005 l 1.6146005266177532 -0.7160929355351078 a22.766274031082837,22.766274031082837 0 0,0 0.15579643240637742,0.3595996462231423 l -1.6266876688668115 0.6881941447253627" fill="#ff1702" stroke="none" /><path d="M 119.34039704204932 91.81776055985345 l 7.541571853301327 -3.1905728990268276 a29.18871549405102,29.18871549405102 0 0,0 0.191781415515613,0.4644139096364821 l -7.595374955703137 3.0602844189370426" fill="#ff6f0a" stroke="none" /><path d="M 119.47837535516314 92.15188598940014 l 4.760025392188484 -1.917881819714662 a26.13187221281582,26.13187221281582 0 0,0 0.16451438381911493,0.418671162378004 l -4.7923333258893 1.8356616524408738" fill="#ff4606" stroke="none" /><path d="M 119.85752413597 93.16781622104841 l 1.667136672072703 -0.573595381289162 a22.763053131589036,22.763053131589036 0 0,0 0.12428920352785634,0.37160889871986535 l -1.6767631693723293 0.5448133796469826" fill="#ff1602" stroke="none" /><path d="M 120.83666639777658 97.38593545837742 l 0.7674828379464099 -0.09628458001293612 a21.77349895080119,21.77349895080119 0 0,0 0.043453316900228814,0.37228148270773415 l -0.7690265078502276 0.08305935898034926" fill="#ff0801" stroke="none" /><line stroke="#e1ed5e" stroke-width="0.3" x1="184.98032266829074" x2="189.97916517819016" y1="98.17113171792111" y2="98.06355123074" /><path d="M 185.9800911702706 98.14961562048488 a86.0,86.0 0 0,1 -9.607161424134198,41.387399972396054" fill="none" id="id88" stroke="none" /><text fill="#e1ed5e" style="font-size:6.75px; font-family:Arial;" text-anchor="middle"><textPath startOffset="21.466115282336823" xlink:href="#id88">April</textPath></text><path d="M 120.99824983174949 100.27111621757518 l 0.6780589976737278 0.008754672042436887 a21.678115512732802,21.678115512732802 0 0,0 -0.008029096360247772,0.37308055813237767 l -0.6778078386284725 -0.020425045964929396" fill="#ff0701" stroke="none" /><path d="M 120.92983693683757 101.71520430193887 l 2.2008572618710227 0.18036069057329976 a23.208235192599396,23.208235192599396 0 0,0 -0.036056097278816354,0.3978760289656111 l -2.197426568315131 -0.2182181080874814" fill="#ff1d02" stroke="none" /><path d="M 120.32669344350535 105.2749913415812 l 1.718707585720633 0.4460227463253764 a22.775638492332625,22.775638492332625 0 0,0 -0.10174411711952325,0.3786277095423479 l -1.7107753922593325 -0.4755413890432726" fill="#ff1702" stroke="none" /><path d="M 118.97047184881838 109.00673069616215 l 2.2802533530527285 1.0826102815806304 a23.524202918921596,23.524202918921596 0 0,0 -0.17681994388030506,0.3643014567308194 l -2.2612801525577093 -1.1217006942767254" fill="#ff2103" stroke="none" /><line stroke="#e1ed5e" stroke-width="0.3" x1="174.80103733775053" x2="179.2010983576182" y1="140.37084112569926" y2="142.7455964860345" /><path d="M 175.68104954172406 140.8457921977663 a86.0,86.0 0 0,1 -30.038265399797805,32.042727171017184" fill="none" id="id89" stroke="none" /><text fill="#e1ed5e" style="font-size:6.75px; font-family:Arial;" text-anchor="middle"><textPath startOffset="22.206326154141568" xlink:href="#id89">May</textPath></text><path d="M 118.30583269289576 110.29060199501025 l 13.9774587532291 7.8574117519916875 a37.03459611710123,37.03459611710123 0 0,0 -0.31717134214111864,0.5530149694750309 l -13.840135414935602 -8.096846567325032" fill="#ffd513" stroke="none" /><path d="M 117.94076556474637 110.91462005526583 l 1.5764458986948011 0.9590620846050324 a22.845259264612594,22.845259264612594 0 0,0 -0.20727760504103665,0.33419749795240294 l -1.5597036539858016 -0.986055913922709" fill="#ff1802" stroke="none" /><path d="M 117.75023020441432 111.22182372390056 l 1.1413338319660262 0.7215594910572753 a22.35029293678264,22.35029293678264 0 0,0 -0.2083846980533478,0.32341767899601714 l -1.128744270535628 -0.7410987699747453" fill="#ff1101" stroke="none" /><path d="M 117.35343817320211 111.8261652097733 l 0.16039252407327872 0.10930562976461318 a21.194096580281148,21.194096580281148 0 0,0 -0.20804437345605845,0.29970343664603305 l -0.1584872434550841 -0.11205032859766581" fill="#ff0000" stroke="none" /><line stroke="#e1ed5e" stroke-width="0.3" x1="143.8653032363475" x2="146.44561519142675" y1="172.8068346515853" y2="177.08958963109032" /><path d="M 144.38136562736335 173.6633856474863 a86.0,86.0 0 0,1 -40.68145358897372,12.25698825130547" fill="none" id="id90" stroke="none" /><text fill="#e1ed5e" style="font-size:6.75px; font-family:Arial;" text-anchor="middle"><textPath startOffset="21.466115282336833" xlink:href="#id90">June</textPath></text><path d="M 106.91757812671514 119.82793768551818 l 1.0792926884277962 3.093589660799936 a24.27645688155696,24.27645688155696 0 0,0 -0.3957412365524423,0.13425691385335867 l -1.025881718938127 -3.111709561551417" fill="#ff2c04" stroke="none" /><path d="M 101.62511606390274 120.93702456842531 l 0.2208398728158932 2.845168997794745 a23.85372683966733,23.85372683966733 0 0,0 -0.40964486631386465,0.028251508378992752 l -0.17183224572309824 -2.848548850690023" fill="#ff2603" stroke="none" /><line stroke="#e1ed5e" stroke-width="0.3" x1="102.19456741930631" x2="102.32365962044197" y1="184.97166512339345" y2="189.96999836594603" /><path d="M 102.22038585953345 185.97133177190398 a86.0,86.0 0 0,1 -42.740103519485714,-10.115201625700543" fill="none" id="id91" stroke="none" /><text fill="#e1ed5e" style="font-size:6.75px; font-family:Arial;" text-anchor="middle"><textPath startOffset="22.20632615414155" xlink:href="#id91">July</textPath></text><path d="M 99.45781275523022 120.99299961872073 l -0.031550371023062664 1.2216018234418058 a22.222009182022802,22.222009182022802 0 0,0 -0.3823028410649548,-0.013167282839481166 l 0.05257356376266052 -1.220877742176231" fill="#ff0f01" stroke="none" /><path d="M 97.2962882734958 120.8252237178851 l -0.8940672914477948 6.886515001108428 a27.94431027403933,27.94431027403933 0 0,0 -0.4764789784827417,-0.06603564473136508 l 1.0124748611173675 -6.870104790884458" fill="#ff5f08" stroke="none" /><path d="M 90.7491055286396 118.85261126421891 l -0.1950038755455018 0.39740289677467766 a21.442668695349774,21.442668695349774 0 0,0 -0.32995783798835615,-0.1654477097797163 l 0.20181562121661845 -0.3939873460856593" fill="#ff0400" stroke="none" /><line stroke="#e1ed5e" stroke-width="0.3" x1="58.666819895761336" x2="56.23545636021788" y1="174.27360380694188" y2="178.64263932499728" /><path d="M 58.180547188652646 175.14741091055294 a86.0,86.0 0 0,1 -31.652253787137756,-30.449443065178592" fill="none" id="id92" stroke="none" /><text fill="#e1ed5e" style="font-size:6.75px; font-family:Arial;" text-anchor="middle"><textPath startOffset="22.20632615414155" xlink:href="#id92">August</textPath></text><path d="M 89.7882731507175 118.34994917583269 l -0.9162986890247451 1.646541728117963 a22.884330902453748,22.884330902453748 0 0,0 -0.34255798273187893,-0.19451336280933526 l 0.9445054386778312 -1.6305251995139947" fill="#ff1802" stroke="none" /><path d="M 85.97065885151581 115.62618273729859 l -2.5926903063808386 2.887794378933253 a24.880901879692356,24.880901879692356 0 0,0 -0.3162249486362321,-0.28886399295803117 l 2.6420148044839253 -2.842737619388646" fill="#ff3405" stroke="none" /><path d="M 82.6465618267979 111.8261652097733 l -1.0831923658693763 0.7381829321015014 a22.310808812422188,22.310808812422188 0 0,0 -0.2135430136700843,-0.31921783154020644 l 1.095738484950191 -0.719428186355474" fill="#ff1001" stroke="none" /><path d="M 82.05923443525364 110.91462005526583 l -3.2528821296365207 1.978955268180526 a24.807559074100897,24.807559074100897 0 0,0 -0.21880163656044524,-0.3667241283219279 l 3.2864646418951975 -1.922669045972487" fill="#ff3304" stroke="none" /><line stroke="#e1ed5e" stroke-width="0.3" x1="26.63291911575756" x2="22.317208475507996" y1="142.92168965132927" y2="145.44649492493687" /><path d="M 25.769776987707644 143.4266507060508 a86.0,86.0 0 0,1 -11.730757126820373,-40.83630448921669" fill="none" id="id93" stroke="none" /><text fill="#e1ed5e" style="font-size:6.75px; font-family:Arial;" text-anchor="middle"><textPath startOffset="21.46611528233685" xlink:href="#id93">September</textPath></text><path d="M 81.51974371655577 109.97397251340807 l -2.1049512065175753 1.1360624633046799 a23.391956835385976,23.391956835385976 0 0,0 -0.18819106833572344,-0.3559865796353721 l 2.1241947830781847 -1.0996608685831815" fill="#ff1f03" stroke="none" /><path d="M 81.02952815118164 109.00673069616217 l -3.766750752662459 1.7883640374981027 a25.16973106606406,25.16973106606406 0 0,0 -0.182451045503339,-0.3929833204071952 l 3.796976415005625 -1.7232606498120804" fill="#ff3805" stroke="none" /><path d="M 80.32549172779594 107.34259656027581 l -3.9874338850867073 1.4881245276319661 a25.25607138070751,25.25607138070751 0 0,0 -0.14850057513512677,-0.408609804312673 l 4.012458721227058 -1.4192669263131759" fill="#ff3a05" stroke="none" /><path d="M 79.4281124754447 104.21870165774334 l -1.71105863793302 0.3508888478866082 a22.74666672436856,22.74666672436856 0 0,0 -0.07535652993307135,-0.3842413226395178 l 1.7168451008417578 -0.3213837981791355" fill="#ff1602" stroke="none" /><line stroke="#e1ed5e" stroke-width="0.3" x1="15.007084014347285" x2="10.007500721073583" y1="101.09737516637583" y2="101.16192664675087" /><path d="M 14.007167355692545 101.11028546245083 a86.0,86.0 0 0,1 10.666146001902534,-42.60595125391555" fill="none" id="id94" stroke="none" /><text fill="#e1ed5e" style="font-size:6.75px; font-family:Arial;" text-anchor="middle"><textPath startOffset="22.20632615414155" xlink:href="#id94">October</textPath></text><path d="M 79.26566170972629 96.67025291283419 l -1.2111241119854013 -0.19449557191663014 a22.22664181492708,22.22664181492708 0 0,0 0.06391550113620086,-0.3772329057549376 l 1.2075967493289774 0.21531426598739573" fill="#ff0f01" stroke="none" /><line stroke="#e1ed5e" stroke-width="0.3" x1="26.266209847984243" x2="21.928928074336255" y1="57.711370442889674" y2="55.22380399835377" /><path d="M 25.398753493254645 57.213857153982495 a86.0,86.0 0 0,1 29.58750427330803,-30.492523968695096" fill="none" id="id95" stroke="none" /><text fill="#e1ed5e" style="font-size:6.75px; font-family:Arial;" text-anchor="middle"><textPath startOffset="21.46611528233685" xlink:href="#id95">November</textPath></text><line stroke="#e1ed5e" stroke-width="0.3" x1="56.762969772571076" x2="54.21961505331055" y1="26.818313649435495" y2="22.513508569990535" /><path d="M 56.25429882871897 25.957352633546506 a86.0,86.0 0 0,1 42.265352541879196,-11.944610805530505" fill="none" id="id96" stroke="none" /><text fill="#e1ed5e" style="font-size:6.75px; font-family:Arial;" text-anchor="middle"><textPath startOffset="22.20632615414155" xlink:href="#id96">December</textPath></text></svg>