<?xml version="1.0" encoding="utf-8" ?>
<svg baseProfile="full" height="200mm" version="1.1" viewBox="0,0,200,200" width="200mm" xmlns="http://www.w3.org/2000/svg" xmlns:ev="http://www.w3.org/2001/xml-events" xmlns:xlink="http://www.w3.org/1999/xlink"><defs /><rect fill="#1a1a1a" height="200" width="200" x="0" y="0" /><text alignment-baseline="middle" fill="#e1ed5e" style="dominant-baseline: central; font-size:9.0px; font-family:Arial;" text-anchor="middle" x="100.0" y="100.0">2023</text><line stroke="#e1ed5e" stroke-width="0.3" x1="100.0" x2="100.0" y1="15.0" y2="10.0" /><path d="M 100.0 14.0 a86.0,86.0 0 0,1 42.46469731375804,11.215312516191453" fill="none" id="id85" stroke="none" /><text fill="#e1ed5e" style="font-size:6.75px; font-family:Arial;" text-anchor="middle"><textPath startOffset="22.20632615414155" xlink:href="#id85">January</textPath></text><path d="M 105.36241919743992 79.69619591428918 l 2.1311342218658575 -8.069143818852462 a29.34582620481236,29.34582620481236 0 0,0 0.4872834066710576,0.13319296228052693 l -2.269715517760626 8.031264315745641" fill="#ff710a" stroke="none" /><path d="M 105.71112130821622 79.79150937346287 l 17.13336392464865 -60.62547187961136 a84.0,84.0 0 0,0 1.3880391291062915,0.40520668432518603 l -18.174393271478365 60.321566866367476" fill="#4dd2ff" stroke="none" /><line stroke="#e1ed5e" stroke-width="0.3" x1="143.23703022742887" x2="145.7803849466894" y1="26.81831364943548" y2="22.513508569990506" /><path d="M 143.74570117128098 25.957352633546492 a86.0,86.0 0 0,1 28.547481713284135,27.462654790039103" fill="none" id="id86" stroke="none" /><text fill="#e1ed5e" style="font-size:6.75px; font-family:Arial;" text-anchor="middle"><textPath startOffset="19.985693538727396" xlink:href="#id86">February</textPath></text><line stroke="#e1ed5e" stroke-width="0.3" x1="172.23445277983987" x2="176.4835382374775" y1="55.19839476539836" y2="52.563006222186495" /><path d="M 173.08426987136738 54.67131705675599 a86.0,86.0 0 0,1 12.851231095245387,41.99856678651699" fill="none" id="id87" stroke="none" /><text fill="#e1ed5e" style="font-size:6.75px; font-family:Arial;" text-anchor="middle"><textPath startOffset="22.20632615414155" xlink:href="#id87">March</textPath></text><path d="M 118.56541770881063 90.18545643968196 l 34.328854263662144 -18.147829519969708 a59.83058010565434,59.83058010565434 0 0,0 0.4734894296246553,0.9146308693763135 l -34.63615312644692 17.55422592833305" fill="#2fff30" stroke="none" /><line stroke="#e1ed5e" stroke-width="0.3" x1="184.98032266829074" x2="189.97916517819016" y1="98.17113171792111" y2="98.06355123074" /><path d="M 185.9800911702706 98.14961562048488 a86.0,86.0 0 0,1 -9.607161424134198,41.387399972396054" fill="none" id="id88" stroke="none" /><text fill="#e1ed5e" style="font-size:6.75px; font-family:Arial;" text-anchor="middle"><textPath startOffset="21.466115282336823" xlink:href="#id88">April</textPath></text><path d="M 120.32669344350535 105.2749913415812 l 1.718707585720633 0.4460227463253764 a22.775638492332625,22.775638492332625 0 0,0 -0.10174411711952325,0.3786277095423479 l -1.7107753922593325 -0.4755413890432726" fill="#ff1702" stroke="none" /><path d="M 118.97047184881838 109.00673069616215 l 2.2802533530527285 1.0826102815806304 a23.524202918921596,23.524202918921596 0 0,0 -0.17681994388030506,0.3643014567308194 l -2.2612801525577093 -1.1217006942767254" fill="#ff2103" stroke="none" /><line stroke="#e1ed5e" stroke-width="0.3" x1="174.80103733775053" x2="179.2010983576182" y1="140.37084112569926" y2="142.7455964860345" /><path d="M 175.68104954172406 140.8457921977663 a86.0,86.0 0 0,1 -30.038265399797805,32.042727171017184" fill="none" id="id89" stroke="none" /><text fill="#e1ed5e" style="font-size:6.75px; font-family:Arial;" text-anchor="middle"><textPath startOffset="22.206326154141568" xlink:href="#id89">May</textPath></text><path d="M 118.30583269289576 110.29060199501025 l 7.023379298122151 3.948184288006648 a29.057047594333383,29.057047594333383 0 0,0 -0.24885009559743623,0.43389111731111124 l -6.954377206372336 -4.068495251176074" fill="#ff6e0a" stroke="none" /><path d="M 117.35343817320211 111.8261652097733 l 0.16039252407327872 0.10930562976461318 a21.194096580281148,21.194096580281148 0 0,0 -0.20804437345605845,0.29970343664603305 l -0.1584872434550841 -0.11205032859766581" fill="#ff0000" stroke="none" /><line stroke="#e1ed5e" stroke-width="0.3" x1="143.8653032363475" x2="146.44561519142675" y1="172.8068346515853" y2="177.08958963109032" /><path d="M 144.38136562736335 173.6633856474863 a86.0,86.0 0 0,1 -40.68145358897372,12.25698825130547" fill="none" id="id90" stroke="none" /><text fill="#e1ed5e" style="font-size:6.75px; font-family:Arial;" text-anchor="middle"><textPath startOffset="21.466115282336833" xlink:href="#id90">June</textPath></text><line stroke="#e1ed5e" stroke-width="0.3" x1="102.19456741930631" x2="102.32365962044197" y1="184.97166512339345" y2="189.96999836594603" /><path d="M 102.22038585953345 185.97133177190398 a86.0,86.0 0 0,1 -42.740103519485714,-10.115201625700543" fill="none" id="id91" stroke="none" /><text fill="#e1ed5e" style="font-size:6.75px; font-family:Arial;" text-anchor="middle"><textPath startOffset="22.20632615414155" xlink:href="#id91">July</textPath></text><line stroke="#e1ed5e" stroke-width="0.3" x1="58.666819895761336" x2="56.23545636021788" y1="174.27360380694188" y2="178.64263932499728" /><path d="M 58.180547188652646 175.14741091055294 a86.0,86.0 0 0,1 -31.652253787137756,-30.449443065178592" fill="none" id="id92" stroke="none" /><text fill="#e1ed5e" style="font-size:6.75px; font-family:Arial;" text-anchor="middle"><textPath startOffset="22.20632615414155" xlink:href="#id92">August</textPath></text><path d="M 85.97065885151581 115.62618273729859 l -2.5926903063808386 2.887794378933253 a24.880901879692356,24.880901879692356 0 0,0 -0.3162249486362321,-0.28886399295803117 l 2.6420148044839253 -2.842737619388646" fill="#ff3405" stroke="none" /><path d="M 82.6465618267979 111.8261652097733 l -1.0831923658693763 0.7381829321015014 a22.310808812422188,22.310808812422188 0 0,0 -0.2135430136700843,-0.31921783154020644 l 1.095738484950191 -0.719428186355474" fill="#ff1001" stroke="none" /><path d="M 82.05923443525364 110.91462005526583 l -3.2528821296365207 1.978955268180526 a24.807559074100897,24.807559074100897 0 0,0 -0.21880163656044524,-0.3667241283219279 l 3.2864646418951975 -1.922669045972487" fill="#ff3304" stroke="none" /><line stroke="#e1ed5e" stroke-width="0.3" x1="26.63291911575756" x2="22.317208475507996" y1="142.92168965132927" y2="145.44649492493687" /><path d="M 25.769776987707644 143.4266507060508 a86.0,86.0 0 0,1 -11.730757126820373,-40.83630448921669" fill="none" id="id93" stroke="none" /><text fill="#e1ed5e" style="font-size:6.75px; font-family:Arial;" text-anchor="middle"><textPath startOffset="21.46611528233685" xlink:href="#id93">September</textPath></text><path d="M 81.51974371655577 109.97397251340807 l -2.1049512065175753 1.1360624633046799 a23.391956835385976,23.391956835385976 0 0,0 -0.18819106833572344,-0.3559865796353721 l 2.1241947830781847 -1.0996608685831815" fill="#ff1f03" stroke="none" /><path d="M 81.02952815118164 109.00673069616217 l -3.766750752662459 1.7883640374981027 a25.16973106606406,25.16973106606406 0 0,0 -0.182451045503339,-0.3929833204071952 l 3.796976415005625 -1.7232606498120804" fill="#ff3805" stroke="none" /><path d="M 80.32549172779594 107.34259656027581 l -3.9874338850867073 1.4881245276319661 a25.25607138070751,25.25607138070751 0 0,0 -0.14850057513512677,-0.408609804312673 l 4.012458721227058 -1.4192669263131759" fill="#ff3a05" stroke="none" /><path d="M 79.4281124754447 104.21870165774334 l -3.7358548101516345 0.7661162283656727 a24.813600036435172,24.813600036435172 0 0,0 -0.08220399131665716,-0.4191563807119749 l 3.748488734443958 -0.7016961205857429" fill="#ff3304" stroke="none" /><line stroke="#e1ed5e" stroke-width="0.3" x1="15.007084014347285" x2="10.007500721073583" y1="101.09737516637583" y2="101.16192664675087" /><path d="M 14.007167355692545 101.11028546245083 a86.0,86.0 0 0,1 10.666146001902534,-42.60595125391555" fill="none" id="id94" stroke="none" /><text fill="#e1ed5e" style="font-size:6.75px; font-family:Arial;" text-anchor="middle"><textPath startOffset="22.20632615414155" xlink:href="#id94">October</textPath></text><path d="M 79.26566170972629 96.67025291283419 l -5.05940929022604 -0.8124953452125531 a26.124233703883696,26.124233703883696 0 0,0 0.07512351631372313,-0.4433832457820374 l 5.044673912392094 0.8994643793104183" fill="#ff4606" stroke="none" /><line stroke="#e1ed5e" stroke-width="0.3" x1="26.266209847984243" x2="21.928928074336255" y1="57.711370442889674" y2="55.22380399835377" /><path d="M 25.398753493254645 57.213857153982495 a86.0,86.0 0 0,1 29.58750427330803,-30.492523968695096" fill="none" id="id95" stroke="none" /><text fill="#e1ed5e" style="font-size:6.75px; font-family:Arial;" text-anchor="middle"><textPath startOffset="21.46611528233685" xlink:href="#id95">November</textPath></text><path d="M 81.78341655067845 89.55222093294921 l -3.3019189222823906 -1.8937535401900891 a24.80643810409535,24.80643810409535 0 0,0 0.2156273946073,-0.3685771140307924 l 3.2688318532047655 1.9503100665747732" fill="#ff3304" stroke="none" /><line stroke="#e1ed5e" stroke-width="0.3" x1="56.762969772571076" x2="54.21961505331055" y1="26.818313649435495" y2="22.513508569990535" /><path d="M 56.25429882871897 25.957352633546506 a86.0,86.0 0 0,1 42.265352541879196,-11.944610805530505" fill="none" id="id96" stroke="none" /><text fill="#e1ed5e" style="font-size:6.75px; font-family:Arial;" text-anchor="middle"><textPath startOffset="22.20632615414155" xlink:href="#id96">December</textPath></text><path d="M 92.91201910852362 80.23233633223022 l -1.6005978678008101 -4.463905984295822 a25.742190440191173,25.742190440191173 0 0,0 0.4183939453365384,-0.14596943214745056 l 1.5235219184009863 4.490796269615482" fill="#ff4006" stroke="none" /><path d="M 99.27714615592234 79.0124445844662 l -0.29611371211522236 -8.59745437232531 a29.602552238418447,29.602552238418447 0 0,0 0.5094082813912686,-0.013156513007515058 l 0.14807879552907474 8.601277677475185" fill="#ff750a" stroke="none" /></svg>