<?xml version="1.0" encoding="utf-8" ?>
<svg baseProfile="full" height="200mm" version="1.1" viewBox="0,0,200,200" width="200mm" xmlns="http://www.w3.org/2000/svg" xmlns:ev="http://www.w3.org/2001/xml-events" xmlns:xlink="http://www.w3.org/1999/xlink"><defs /><rect fill="#1a1a1a" height="200" width="200" x="0" y="0" /><text alignment-baseline="middle" fill="#e1ed5e" style="dominant-baseline: central; font-size:9.0px; font-family:Arial;" text-anchor="middle" x="100.0" y="100.0">2024</text><line stroke="#e1ed5e" stroke-width="0.3" x1="100.0" x2="100.0" y1="15.0" y2="10.0" /><path d="M 100.0 14.0 a86.0,86.0 0 0,1 42.35913384403234,11.155469271406648" fill="none" id="id97" stroke="none" /><text fill="#e1ed5e" style="font-size:6.75px; font-family:Arial;" text-anchor="middle"><textPath startOffset="22.145653131862478" xlink:href="#id97">January</textPath></text><line stroke="#e1ed5e" stroke-width="0.3" x1="143.13028292997686" x2="145.6673583964461" y1="26.7553504044142" y2="22.446841604673864" /><path d="M 143.63769802327073 25.89364864446614 a86.0,86.0 0 0,1 29.32050498858742,28.57503671076993" fill="none" id="id98" stroke="none" /><text fill="#e1ed5e" style="font-size:6.75px; font-family:Arial;" text-anchor="middle"><textPath startOffset="20.669276256404974" xlink:href="#id98">February</textPath></text><line stroke="#e1ed5e" stroke-width="0.3" x1="172.87174338648825" x2="177.1583165268699" y1="56.24261187166439" y2="53.66864786411523" /><path d="M 173.72905801456457 55.72781907015455 a86.0,86.0 0 0,1 12.242430191666344,42.057860355516425" fill="none" id="id99" stroke="none" /><text fill="#e1ed5e" style="font-size:6.75px; font-family:Arial;" text-anchor="middle"><textPath startOffset="22.145653131862474" xlink:href="#id99">March</textPath></text><path d="M 120.43855184770803 95.1765574152323 l 4.404133601538827 -1.0393635381290935 a25.525115395721482,25.525115395721482 0 0,0 0.096982236479322,0.42732162835143034 l -4.421326699575815 0.9636075758386369" fill="#ff2c04" stroke="none" /><path d="M 120.51834098615036 95.52812308129327 l 3.9628464086023243 -0.8636839303416541 a25.05587248193317,25.05587248193317 0 0,0 0.08798463781478601,0.4210383427411885 l -3.977088757241477 0.7955291363150612" fill="#ff2603" stroke="none" /><path d="M 120.82617615685814 97.30363454192243 l 5.316740932822663 -0.6883585586156341 a26.36111664226506,26.36111664226506 0 0,0 0.054251069768778866,0.44927668236314827 l -5.327774088851105 0.5969881993290729" fill="#ff3805" stroke="none" /><line stroke="#e1ed5e" stroke-width="0.3" x1="184.99686870605535" x2="189.99668451229388" y1="99.2704041080226" y2="99.22748670261217" /><path d="M 185.99683186730306 99.26182062694052 a86.0,86.0 0 0,1 -10.086455211305974,41.156179273409016" fill="none" id="id100" stroke="none" /><text fill="#e1ed5e" style="font-size:6.75px; font-family:Arial;" text-anchor="middle"><textPath startOffset="21.40746469413373" xlink:href="#id100">April</textPath></text><path d="M 120.99922638620191 100.18025310272382 l 3.8279128204633435 0.032858027727069326 a24.828053841190552,24.828053841190552 0 0,0 -0.0073166718794358335,0.4261594560734803 l -3.8267847169852396 -0.0985643997696207" fill="#ff2203" stroke="none" /><path d="M 120.99303781780057 100.54070618675476 l 4.263622887715488 0.10981580147596133 a25.265036885995848,25.265036885995848 0 0,0 -0.014888701880973089,0.4334683102657606 l -4.261109498837668 -0.18299037630583262" fill="#ff2904" stroke="none" /><path d="M 120.16314734710363 105.8691983318838 l 12.643485494011923 3.6803343591749007 a34.168241584684466,34.168241584684466 0 0,0 -0.1687645598175469,0.5617623319342503 l -12.578444614190747 -3.8968342946998744" fill="#ffa30f" stroke="none" /><line stroke="#e1ed5e" stroke-width="0.3" x1="174.33088141563837" x2="178.70328620479359" y1="141.23008692659167" y2="143.65538615756765" /><path d="M 175.20536237346943 141.71514677278685 a86.0,86.0 0 0,1 -30.301960400862466,31.631185727798858" fill="none" id="id101" stroke="none" /><text fill="#e1ed5e" style="font-size:6.75px; font-family:Arial;" text-anchor="middle"><textPath startOffset="22.145653131862474" xlink:href="#id101">May</textPath></text><path d="M 115.89218393027572 113.72728997021213 l 8.26687738028788 7.140731786473255 a31.923887223285718,31.923887223285718 0 0,0 -0.3617872359321844,0.4116474621239381 l -8.143079080397111 -7.281591526408487" fill="#ff850c" stroke="none" /><path d="M 115.6541949942343 113.99807769240083 l 5.768544833645632 5.158268360858542 a28.73846509202012,28.73846509202012 0 0,0 -0.33200084312378375,0.364927084580443 l -5.679146289679968 -5.256533020996656" fill="#ff5a08" stroke="none" /><path d="M 112.45986205192187 116.90419585922612 l 6.148570056123469 8.341716148201842 a31.362873251769006,31.362873251769006 0 0,0 -0.43612164565480444,0.3157184387118058 l -6.004467400094696 -8.446035358286725" fill="#ff7e0b" stroke="none" /><path d="M 111.5731344415666 117.5232005979908 l 4.478090048282139 6.780399087914857 a29.125706262960787,29.125706262960787 0 0,0 -0.4195687912003636,0.27195942136975215 l -4.3610356248247655 -6.856272350988504" fill="#ff5f08" stroke="none" /><line stroke="#e1ed5e" stroke-width="0.3" x1="143.1302829299769" x2="145.66735839644613" y1="173.24464959558577" y2="177.55315839532614" /><path d="M 143.63769802327073 174.10635135553383 a86.0,86.0 0 0,1 -40.68552437913181,11.842963189579606" fill="none" id="id102" stroke="none" /><text fill="#e1ed5e" style="font-size:6.75px; font-family:Arial;" text-anchor="middle"><textPath startOffset="21.407464694133747" xlink:href="#id102">June</textPath></text><path d="M 110.02825361518725 118.45085714620011 l 1.6637508264756604 3.061114128554234 a24.48403308259735,24.48403308259735 0 0,0 -0.37100443626354757,0.19753896540236326 l -1.610957574425559 -3.0892235616791655" fill="#ff1d03" stroke="none" /><path d="M 109.71004243097381 118.62028667847754 l 1.7011769926836184 3.2622311920651903 a24.679151466156178,24.679151466156178 0 0,0 -0.37732398699952774,0.1926643163018081 l -1.6449257839705083 -3.2909534600398347" fill="#ff2003" stroke="none" /><path d="M 101.08105385017728 120.97215588758144 l 1.9007110644604932 36.873286871490606 a57.92224244622479,57.92224244622479 0 0,0 -0.993433315112541,0.04266230103140065 l -1.2674519887471227 -36.90048174094783" fill="#47ff2c" stroke="none" /><path d="M 100.72087961077811 120.9876233191556 l 1.1808380010736736 34.37880999398554 a55.399083635866525,55.399083635866525 0 0,0 -0.9507186740498869,0.024487140612219245 l -0.590506012953043 -34.39401485194781" fill="#61ff29" stroke="none" /><line stroke="#e1ed5e" stroke-width="0.3" x1="101.45913802915013" x2="101.54496967792366" y1="184.9874750549273" y2="189.98673829345242" /><path d="M 101.47630435890484 185.9873277026323 a86.0,86.0 0 0,1 -42.54439059252881,-10.42667462771756" fill="none" id="id103" stroke="none" /><text fill="#e1ed5e" style="font-size:6.75px; font-family:Arial;" text-anchor="middle"><textPath startOffset="22.145653131862474" xlink:href="#id103">July</textPath></text><path d="M 100.36049292484886 120.99690560180557 l 0.3047978543312268 17.75294696202131 a38.755563285019896,38.755563285019896 0 0,0 -0.6652907791800768,0.005710721193022547 l -2.174429374405788e-15 -17.755563285019896" fill="#ffde14" stroke="none" /><path d="M 100.0 121.0 l 2.189318735561536e-15 17.877144145445243 a38.87714414544524,38.87714414544524 0 0,0 -0.6673778763219993,-0.005728636411831025 l 0.30688495147314493 -17.874509907227846" fill="#ffe015" stroke="none" /><path d="M 99.27912038922189 120.98762331915562 l -0.5072740547061738 14.768730618226641 a35.77743993526359,35.77743993526359 0 0,0 -0.61362439125394,-0.026351671623700813 l 0.7607242065609525 -14.757846378177112" fill="#ffb811" stroke="none" /><path d="M 98.91894614982273 120.97215588758144 l -1.391829286213792 27.001116322364926 a48.03696490761942,48.03696490761942 0 0,0 -0.823160625162968,-0.04951929912164999 l 1.855134263509206 -26.973245045418583" fill="#b1ff20" stroke="none" /><path d="M 98.55909050195518 120.95050786540614 l -1.6646900759691996 24.204228355340746 a45.26140687030559,45.26140687030559 0 0,0 -0.7746834747276654,-0.05996540038463437 l 2.0799425454721012 -24.17208518796106" fill="#d1ff1d" stroke="none" /><path d="M 97.84075906011543 120.88869738790638 l -3.840480087203725 37.15316104101263 a58.351126658236524,58.351126658236524 0 0,0 -0.9954816087043178,-0.11154579063125354 l 4.4776975975088416 -37.08175948987441" fill="#43ff2d" stroke="none" /><path d="M 97.48249496171623 120.84855314841334 l -3.7710577579748725 31.229767923909716 a52.456625394266986,52.456625394266986 0 0,0 -0.8930669984389057,-0.11562540277211132 l 4.306602578304572 -31.160430924937206" fill="#80ff26" stroke="none" /><path d="M 97.12497278360702 120.80226474461374 l -3.3007758614969487 23.88276985413576 a45.10978675130613,45.10978675130613 0 0,0 -0.766168020265808,-0.11260031453427434 l 3.7102689873704415 -23.8225884663026" fill="#d2ff1c" stroke="none" /><path d="M 96.76829788921471 120.74984581791261 l -3.651915341569107 23.447916200177016 a44.73059754394127,44.73059754394127 0 0,0 -0.7576990403932997,-0.12467908875841482 l 4.053891885015471 -23.38177111292293" fill="#d7ff1c" stroke="none" /><path d="M 95.70440661134978 120.55596938700252 l -7.70787616442742 36.88497772936635 a58.68173213988444,58.68173213988444 0 0,0 -0.9842815008360022,-0.21451957193174379 l 8.339920081882559 -36.74722669930089" fill="#3fff2d" stroke="none" /><path d="M 95.35216902796893 120.47920084513623 l -5.094747551656819 22.44839775661026 a44.01927484639987,44.01927484639987 0 0,0 -0.735473721870869,-0.17356979577040602 l 5.479353427267576 -22.357631817193624" fill="#dfff1b" stroke="none" /><path d="M 95.00130118170881 120.39639698878247 l -11.117998314271363 45.36522714845491 a67.70774797340428,67.70774797340428 0 0,0 -1.1265108928351213,-0.28635466377211155 l 11.895114500331863 -45.16768725284754" fill="#39ff86" stroke="none" /><path d="M 94.6519064749342 120.30758222061772 l -8.214171857693218 31.19054848098167 a53.25403748140978,53.25403748140978 0 0,0 -0.8820354624454851,-0.24040268752699337 l 8.748388721073399 -31.04494529931053" fill="#77ff27" stroke="none" /><path d="M 94.30408787586889 120.21278271476187 l -11.459969502088114 40.66738889495072 a63.25124164473691,63.25124164473691 0 0,0 -1.0425611428455823,-0.3034743542334546 l 12.156390657315303 -40.46467084641475" fill="#33ff53" stroke="none" /><path d="M 93.61358852112213 120.00534299687104 l -13.983474331895772 43.803034180107275 a66.98090209831071,66.98090209831071 0 0,0 -1.0923540943101886,-0.3590784877090105 l 14.733351163853705 -43.556534770996244" fill="#38ff7e" stroke="none" /><path d="M 93.27111125876986 119.89276391827306 l -10.947100795390256 32.363158329235006 a55.164499599256054,55.164499599256054 0 0,0 -0.8944377953129236,-0.3111318951954881 l 11.5010443627482 -32.17046800147093" fill="#63ff29" stroke="none" /><path d="M 92.93061703081489 119.77432235084164 l -21.208148907555326 59.32296705252494 a84.0,84.0 0 0,0 -1.3536433933835246,-0.49707660396512177 l 22.223381452592967 -58.9501595995511" fill="#4dd2ff" stroke="none" /><line stroke="#e1ed5e" stroke-width="0.3" x1="58.13341422392154" x2="55.67067388415222" y1="173.97424548756322" y2="178.32567169271397" /><path d="M 57.64086615596768 174.84453072859336 a86.0,86.0 0 0,1 -31.369924170532247,-30.572349798747897" fill="none" id="id104" stroke="none" /><text fill="#e1ed5e" style="font-size:6.75px; font-family:Arial;" text-anchor="middle"><textPath startOffset="22.145653131862474" xlink:href="#id104">August</textPath></text><path d="M 87.54013794807813 116.9041958592261 l -4.408671598462421 5.981209733210576 a28.430427654969943,28.430427654969943 0 0,0 -0.39037280182377493,-0.2929430281563071 l 4.510697389196962 -5.904647677790254" fill="#ff5607" stroke="none" /><path d="M 85.60350026404147 115.28858382429668 l -4.073958194441888 4.326402423835991 a26.94263353262122,26.94263353262122 0 0,0 -0.33399565770424305,-0.3199602847932278 l 4.147626338011445 -4.255830008737181" fill="#ff4106" stroke="none" /><line stroke="#e1ed5e" stroke-width="0.3" x1="26.387840678322732" x2="22.057713659400548" y1="142.50000000000003" y2="145.00000000000006" /><path d="M 25.521815274538298 143.00000000000003 a86.0,86.0 0 0,1 -11.493303480769221,-40.785679425670985" fill="none" id="id105" stroke="none" /><text fill="#e1ed5e" style="font-size:6.75px; font-family:Arial;" text-anchor="middle"><textPath startOffset="21.40746469413373" xlink:href="#id105">September</textPath></text><path d="M 80.5471966667186 107.91128576633889 l -6.108935529169641 2.4844508974557815 a27.59481535461153,27.59481535461153 0 0,0 -0.17469006272891388,-0.4403330740718958 l 6.15068426686468 -2.3792168061703203" fill="#ff4a06" stroke="none" /><path d="M 80.41425534168474 107.57618678355246 l -6.095105209235274 2.3577176327051217 a27.535223021995165,27.535223021995165 0 0,0 -0.16674454679638692,-0.44230972082130493 l 6.134680439846097 -2.2527396316896717" fill="#ff4906" stroke="none" /><path d="M 79.56144815229197 104.8234425847677 l -6.457029702605835 1.523841428234629 a27.634404666489537,27.634404666489537 0 0,0 -0.10499644474790491,-0.4626337087034702 l 6.482237008911406 -1.4127733855921327" fill="#ff4a06" stroke="none" /><path d="M 79.22317932658666 103.0534771498775 l -3.2167018802767333 0.472744403187812 a24.251254874247984,24.251254874247984 0 0,0 -0.05699678135529846,-0.412400316972077 l 3.2243431781872443 -0.41745577801564937" fill="#ff1a02" stroke="none" /><line stroke="#e1ed5e" stroke-width="0.3" x1="15.003131293944662" x2="10.003315487706104" y1="100.72959589197737" y2="100.7725132973878" /><path d="M 14.003168132696942 100.73817937305945 a86.0,86.0 0 0,1 10.791469493833604,-42.45332614584628" fill="none" id="id106" stroke="none" /><text fill="#e1ed5e" style="font-size:6.75px; font-family:Arial;" text-anchor="middle"><textPath startOffset="22.145653131862435" xlink:href="#id106">October</textPath></text><path d="M 79.13060592940154 97.66154086499901 l -6.513249026961472 -0.7298231388084381 a27.554010581403936,27.554010581403936 0 0,0 0.056706040595585795,-0.4696073625334768 l 6.499760900106218 0.8415241782653512" fill="#ff4906" stroke="none" /><path d="M 79.17382384314186 97.30363454192245 l -1.4520943947139453 -0.1880026913382931 a22.46421417255472,22.46421417255472 0 0,0 0.05279676908065662,-0.3820111203865261 l 1.4486531090780808 0.21290211992488617" fill="#ff0000" stroke="none" /><line stroke="#e1ed5e" stroke-width="0.3" x1="26.387840678322718" x2="22.05771365940052" y1="57.49999999999999" y2="54.99999999999999" /><path d="M 25.521815274538284 56.99999999999999 a86.0,86.0 0 0,1 29.574782752854787,-30.34633250058573" fill="none" id="id107" stroke="none" /><text fill="#e1ed5e" style="font-size:6.75px; font-family:Arial;" text-anchor="middle"><textPath startOffset="21.40746469413373" xlink:href="#id107">November</textPath></text><line stroke="#e1ed5e" stroke-width="0.3" x1="56.869717070023135" x2="54.33264160355391" y1="26.7553504044142" y2="22.446841604673864" /><path d="M 56.362301976729285 25.89364864446614 a86.0,86.0 0 0,1 42.16139366436587,-11.88097634709845" fill="none" id="id108" stroke="none" /><text fill="#e1ed5e" style="font-size:6.75px; font-family:Arial;" text-anchor="middle"><textPath startOffset="22.145653131862474" xlink:href="#id108">December</textPath></text></svg>